# xmcd
#
# Track frame offsets: 
#        150
#        18067
#        38675
#        57560
#        78282
#        97405
#        115907
#        134865
#        154359
#        175264
#        193809
#        213355
#        230897
#        248454
#
# Disc length: 3567 seconds
#
# Revision: 0
# Processed by: cddbd v1.5.2PL0 Copyright (c) Steve Scherf et al.
# Submitted via: ExactAudioCopyFreeDBPlugin 1.0
#
DISCID=c80ded0e
DTITLE=Jim Rama - Cupidon
DYEAR=2011
DGENRE=World
TTITLE0=Ineida
TTITLE1=Dans La Téte
TTITLE2=J'amerais
TTITLE3=Saudade Di Bo
TTITLE4=Mon Seul Regret
TTITLE5=Habilléw
TTITLE6=J'attendrai
TTITLE7=Yes Patron
TTITLE8=L'essential
TTITLE9=Prisionero
TTITLE10=Tou Mes Gestes Et Mes Mots
TTITLE11=Océan Lanmou
TTITLE12=Dam Um Chance
TTITLE13=Sérièsman
EXTD=
EXTT0=
EXTT1=
EXTT2=
EXTT3=
EXTT4=
EXTT5=
EXTT6=
EXTT7=
EXTT8=
EXTT9=
EXTT10=
EXTT11=
EXTT12=
EXTT13=
PLAYORDER=
